<svg xmlns="http://www.w3.org/2000/svg" viewBox="0 0 400 100">
  <defs>
    <linearGradient id="logoGradient" x1="0%" y1="0%" x2="100%" y2="100%">
      <stop offset="0%" style="stop-color:#667eea;stop-opacity:1" />
      <stop offset="100%" style="stop-color:#764ba2;stop-opacity:1" />
    </linearGradient>
  </defs>
  
  <!-- Car icon -->
  <g fill="url(#logoGradient)">
    <path d="M50 30 L70 30 L85 45 L85 70 L75 70 L75 60 L45 60 L45 70 L35 70 L35 45 L50 45 Z M40 70 Q40 75 45 75 L55 75 Q60 75 60 70 L60 65 L40 65 Z M80 70 Q80 75 85 75 L95 75 Q100 75 100 70 L100 65 L80 65 Z M55 55 Q55 50 60 50 L65 50 Q70 50 70 55 L70 60 L55 60 Z" />
  </g>
  
  <!-- Text: FaciliAuto -->
  <text x="110" y="50" font-family="Arial, sans-serif" font-size="36" font-weight="bold" fill="url(#logoGradient)">FaciliAuto</text>
  
  <!-- Tagline -->
  <text x="110" y="70" font-family="Arial, sans-serif" font-size="14" fill="#667eea">Assistente de Vendas com IA</text>
</svg>