<svg xmlns="http://www.w3.org/2000/svg" viewBox="0 0 300 180" role="img" aria-labelledby="title desc">
  <title id="title">CarInsight mark</title>
  <desc id="desc">Automotive technology symbol with car silhouette and circuit traces in a circular frame.</desc>
  <defs>
    <linearGradient id="carInsightGradient" x1="0%" y1="0%" x2="100%" y2="100%">
      <stop offset="0%" stop-color="#0a5c74" />
      <stop offset="55%" stop-color="#25b7ba" />
      <stop offset="100%" stop-color="#b2ff54" />
    </linearGradient>
    <filter id="logoGlow" x="-20%" y="-20%" width="140%" height="140%">
      <feGaussianBlur stdDeviation="2.8" result="blur" />
      <feMerge>
        <feMergeNode in="blur" />
        <feMergeNode in="SourceGraphic" />
      </feMerge>
    </filter>
  </defs>

  <g transform="translate(12 10)" fill="none" stroke="url(#carInsightGradient)" stroke-linecap="round" stroke-linejoin="round">
    <path d="M124 10 A 74 74 0 0 1 221 32" stroke-width="8" opacity="0.95" />
    <path d="M254 53 A 74 74 0 0 1 273 126" stroke-width="8" opacity="0.95" />
    <path d="M246 151 A 74 74 0 0 1 152 170" stroke-width="8" opacity="0.95" />
    <path d="M92 168 A 74 74 0 0 1 32 113" stroke-width="8" opacity="0.95" />
    <path d="M28 75 A 74 74 0 0 1 78 21" stroke-width="8" opacity="0.95" />

    <g stroke-width="6" opacity="0.92">
      <path d="M95 82 L65 52" />
      <path d="M87 104 L48 104" />
      <path d="M96 127 L65 152" />
      <path d="M146 52 L146 26" />
      <path d="M166 63 L166 34" />
      <path d="M184 72 L184 18" />
      <path d="M133 131 L133 161" />
      <path d="M151 136 L151 164" />
      <path d="M169 132 L169 154" />
    </g>

    <g fill="url(#carInsightGradient)" stroke="none" filter="url(#logoGlow)">
      <circle cx="56" cy="52" r="10" />
      <circle cx="38" cy="104" r="12" />
      <circle cx="59" cy="153" r="10" />
      <circle cx="146" cy="25" r="8" />
      <circle cx="166" cy="34" r="7" />
      <circle cx="184" cy="18" r="10" />
      <circle cx="133" cy="161" r="8" />
      <circle cx="151" cy="164" r="7" />
      <circle cx="169" cy="154" r="8" />
      <circle cx="251" cy="104" r="12" />
      <circle cx="228" cy="152" r="9" />
      <circle cx="222" cy="32" r="8" />
    </g>

    <g stroke-width="6">
      <path d="M84 86 C 107 62, 147 55, 188 58 C 212 60, 228 66, 241 78" />
      <path d="M76 106 L95 106 L112 83 L197 83 L216 93 L228 93 C 237 93, 244 98, 246 106" />
      <path d="M88 121 L108 121 L122 121 L197 121 L214 121 L236 121" />
      <path d="M121 121 L115 106" />
      <path d="M205 121 L211 106" />
      <path d="M129 121 C 132 140, 144 150, 160 150 C 176 150, 188 140, 191 121" />
      <path d="M201 121 C 204 140, 216 150, 232 150 C 248 150, 260 140, 263 121" />
    </g>

    <g fill="#071017" stroke="url(#carInsightGradient)" stroke-width="6" filter="url(#logoGlow)">
      <circle cx="160" cy="121" r="17" />
      <circle cx="232" cy="121" r="17" />
    </g>

    <g fill="url(#carInsightGradient)" stroke="none">
      <circle cx="104" cy="106" r="5" />
      <circle cx="139" cy="106" r="5" />
      <circle cx="176" cy="106" r="5" />
      <circle cx="214" cy="106" r="5" />
    </g>
  </g>
</svg>
